<svg id="Group_21" data-name="Group 21" xmlns="http://www.w3.org/2000/svg" width="30" height="24.375" viewBox="0 0 30 24.375">
  <path id="Path_19" data-name="Path 19" d="M30,50.886a12.823,12.823,0,0,1-3.544.971,6.116,6.116,0,0,0,2.706-3.4,12.291,12.291,0,0,1-3.9,1.489,6.15,6.15,0,0,0-10.639,4.206,6.333,6.333,0,0,0,.142,1.4A17.408,17.408,0,0,1,2.089,49.121a6.152,6.152,0,0,0,1.89,8.22A6.074,6.074,0,0,1,1.2,56.584v.068a6.179,6.179,0,0,0,4.928,6.043,6.138,6.138,0,0,1-1.613.2,5.438,5.438,0,0,1-1.164-.1A6.209,6.209,0,0,0,9.1,67.076,12.358,12.358,0,0,1,1.472,69.7,11.52,11.52,0,0,1,0,69.615a17.315,17.315,0,0,0,9.435,2.76c11.318,0,17.505-9.375,17.505-17.5,0-.272-.009-.534-.023-.795A12.269,12.269,0,0,0,30,50.886Z" transform="translate(0 -48)"/>
</svg>
